<mxfile host="app.diagrams.net" agent="Mozilla/5.0 (Windows NT 10.0; Win64; x64; rv:134.0) Gecko/20100101 Firefox/134.0" version="26.0.5">
  <diagram name="Page-1" id="jAmSaxwhQgPvVebhMbeQ">
    <mxGraphModel dx="989" dy="534" grid="1" gridSize="10" guides="1" tooltips="1" connect="1" arrows="1" fold="1" page="1" pageScale="1" pageWidth="827" pageHeight="1169" math="0" shadow="0">
      <root>
        <mxCell id="0" />
        <mxCell id="1" parent="0" />
        <mxCell id="cFS_ockNZHXa21P1kwaD-1" value="" style="whiteSpace=wrap;html=1;aspect=fixed;" vertex="1" parent="1">
          <mxGeometry x="330" y="565" width="80" height="80" as="geometry" />
        </mxCell>
        <mxCell id="cFS_ockNZHXa21P1kwaD-3" value="" style="rounded=1;whiteSpace=wrap;html=1;labelBackgroundColor=#0C0E2E;labelBorderColor=default;textShadow=0;fillColor=#0A0A33;strokeColor=none;fontColor=#ffffff;" vertex="1" parent="1">
          <mxGeometry x="509.9999999999998" y="585" width="120" height="60" as="geometry" />
        </mxCell>
        <mxCell id="cFS_ockNZHXa21P1kwaD-5" value="" style="endArrow=classic;startArrow=classic;html=1;rounded=0;exitX=0.995;exitY=0.385;exitDx=0;exitDy=0;exitPerimeter=0;entryX=-0.035;entryY=0.295;entryDx=0;entryDy=0;entryPerimeter=0;" edge="1" parent="1" source="cFS_ockNZHXa21P1kwaD-1" target="cFS_ockNZHXa21P1kwaD-3">
          <mxGeometry width="50" height="50" relative="1" as="geometry">
            <mxPoint x="370" y="690" as="sourcePoint" />
            <mxPoint x="420" y="640" as="targetPoint" />
          </mxGeometry>
        </mxCell>
        <mxCell id="cFS_ockNZHXa21P1kwaD-7" value="" style="endArrow=classic;html=1;rounded=0;exitX=1.047;exitY=0.851;exitDx=0;exitDy=0;exitPerimeter=0;entryX=0;entryY=0.75;entryDx=0;entryDy=0;" edge="1" parent="1" source="cFS_ockNZHXa21P1kwaD-1" target="cFS_ockNZHXa21P1kwaD-3">
          <mxGeometry relative="1" as="geometry">
            <mxPoint x="310" y="660" as="sourcePoint" />
            <mxPoint x="470" y="660" as="targetPoint" />
          </mxGeometry>
        </mxCell>
        <mxCell id="cFS_ockNZHXa21P1kwaD-8" value="Label" style="edgeLabel;resizable=0;html=1;;align=center;verticalAlign=middle;" connectable="0" vertex="1" parent="cFS_ockNZHXa21P1kwaD-7">
          <mxGeometry relative="1" as="geometry" />
        </mxCell>
        <mxCell id="cFS_ockNZHXa21P1kwaD-9" value="Source" style="edgeLabel;resizable=0;html=1;;align=left;verticalAlign=bottom;" connectable="0" vertex="1" parent="cFS_ockNZHXa21P1kwaD-7">
          <mxGeometry x="-1" relative="1" as="geometry" />
        </mxCell>
      </root>
    </mxGraphModel>
  </diagram>
</mxfile>
